<svg width="25" height="25" viewBox="0 0 25 25" fill="none" xmlns="http://www.w3.org/2000/svg">
<path d="M0 2.08333C0 0.93274 0.895431 0 2 0H23C24.1046 0 25 0.93274 25 2.08333C25 3.23393 24.1046 4.16667 23 4.16667H2C0.89543 4.16667 0 3.23393 0 2.08333Z" fill="black"/>
<path d="M0 12.5C0 11.3494 0.895431 10.4167 2 10.4167H18C19.1046 10.4167 20 11.3494 20 12.5C20 13.6506 19.1046 14.5833 18 14.5833H2C0.895431 14.5833 0 13.6506 0 12.5Z" fill="black"/>
<path d="M0 22.9167C0 21.7661 0.895431 20.8333 2 20.8333H12C13.1046 20.8333 14 21.7661 14 22.9167C14 24.0673 13.1046 25 12 25H2C0.89543 25 0 24.0673 0 22.9167Z" fill="black"/>
</svg>
